<svg xmlns="http://www.w3.org/2000/svg" xmlns:xlink="http://www.w3.org/1999/xlink" width="500" zoomAndPan="magnify" viewBox="0 0 375 374.999991" height="500" preserveAspectRatio="xMidYMid meet" version="1.0"><defs><g/><clipPath id="4e83095bf3"><path d="M 46 7 L 60 7 L 60 27.519531 L 46 27.519531 Z M 46 7 " clip-rule="nonzero"/></clipPath><clipPath id="3dd3df77be"><rect x="0" width="97" y="0" height="28"/></clipPath></defs><g fill="#ffffff" fill-opacity="1"><g transform="translate(85.865052, 235.499985)"><g><path d="M 26.546875 38.171875 C 26.546875 40.492188 27.546875 42.332031 29.546875 43.6875 C 31.554688 45.050781 33.722656 45.988281 36.046875 46.5 C 31.785156 45.851562 27.75 44.59375 23.9375 42.71875 C 20.125 40.851562 16.828125 38.660156 14.046875 36.140625 C 11.273438 33.617188 9.046875 30.90625 7.359375 28 C 5.679688 25.09375 4.84375 22.285156 4.84375 19.578125 C 4.84375 15.441406 6.296875 11.921875 9.203125 9.015625 C 12.109375 6.109375 15.628906 4.65625 19.765625 4.65625 C 21.828125 4.65625 23.796875 5.039062 25.671875 5.8125 C 27.546875 6.582031 29.160156 7.644531 30.515625 9 C 31.878906 10.363281 32.945312 11.945312 33.71875 13.75 C 34.488281 15.5625 34.875 17.503906 34.875 19.578125 C 34.875 21.898438 34.453125 23.832031 33.609375 25.375 C 32.773438 26.925781 31.84375 28.347656 30.8125 29.640625 C 29.78125 30.941406 28.84375 32.238281 28 33.53125 C 27.15625 34.820312 26.671875 36.367188 26.546875 38.171875 Z M 72.859375 -95.140625 C 73.890625 -95.140625 74.726562 -94.847656 75.375 -94.265625 C 76.019531 -93.691406 76.34375 -92.890625 76.34375 -91.859375 L 76.34375 19.578125 C 76.34375 22.285156 75.632812 25.0625 74.21875 27.90625 C 72.800781 30.75 70.832031 33.394531 68.3125 35.84375 C 65.789062 38.300781 62.847656 40.46875 59.484375 42.34375 C 56.128906 44.21875 52.578125 45.539062 48.828125 46.3125 C 51.023438 45.789062 53.09375 44.851562 55.03125 43.5 C 56.96875 42.144531 57.9375 40.367188 57.9375 38.171875 C 57.9375 36.234375 57.421875 34.550781 56.390625 33.125 C 55.359375 31.707031 54.160156 30.320312 52.796875 28.96875 C 51.441406 27.613281 50.179688 26.191406 49.015625 24.703125 C 47.859375 23.222656 47.21875 21.515625 47.09375 19.578125 L 47.09375 -79.640625 C 47.09375 -82.097656 46.347656 -84.390625 44.859375 -86.515625 C 43.367188 -88.648438 41.460938 -89.910156 39.140625 -90.296875 L 72.46875 -95.140625 Z M 61.8125 -105.609375 C 59.75 -105.609375 57.78125 -105.992188 55.90625 -106.765625 C 54.03125 -107.546875 52.414062 -108.613281 51.0625 -109.96875 C 49.707031 -111.320312 48.640625 -112.90625 47.859375 -114.71875 C 47.085938 -116.53125 46.703125 -118.46875 46.703125 -120.53125 C 46.703125 -124.664062 48.1875 -128.21875 51.15625 -131.1875 C 54.125 -134.15625 57.675781 -135.640625 61.8125 -135.640625 C 63.882812 -135.640625 65.820312 -135.253906 67.625 -134.484375 C 69.4375 -133.710938 71.019531 -132.644531 72.375 -131.28125 C 73.726562 -129.925781 74.789062 -128.3125 75.5625 -126.4375 C 76.34375 -124.5625 76.734375 -122.59375 76.734375 -120.53125 C 76.734375 -116.394531 75.28125 -112.875 72.375 -109.96875 C 69.46875 -107.0625 65.945312 -105.609375 61.8125 -105.609375 Z M 61.8125 -105.609375 "/></g></g></g><g fill="#ffffff" fill-opacity="1"><g transform="translate(167.448398, 235.499985)"><g><path d="M 41.859375 -56.578125 L 41.859375 -10.65625 C 41.859375 -8.332031 42.628906 -6.070312 44.171875 -3.875 C 45.722656 -1.675781 47.597656 -0.382812 49.796875 0 L 4.84375 0 C 7.039062 -0.382812 8.914062 -1.675781 10.46875 -3.875 C 12.019531 -6.070312 12.796875 -8.332031 12.796875 -10.65625 L 12.796875 -79.640625 C 12.796875 -82.097656 12.019531 -84.390625 10.46875 -86.515625 C 8.914062 -88.648438 7.039062 -89.910156 4.84375 -90.296875 L 37.984375 -95.140625 L 38.5625 -95.140625 C 40.757812 -95.140625 41.859375 -94.046875 41.859375 -91.859375 Z M 92.828125 -10.65625 C 92.828125 -8.332031 93.597656 -6.070312 95.140625 -3.875 C 96.691406 -1.675781 98.566406 -0.382812 100.765625 0 L 55.8125 0 C 58.007812 -0.382812 59.878906 -1.675781 61.421875 -3.875 C 62.972656 -6.070312 63.75 -8.332031 63.75 -10.65625 L 63.75 -67.828125 C 63.75 -70.273438 64.265625 -72.335938 65.296875 -74.015625 C 66.335938 -75.703125 67.503906 -77.222656 68.796875 -78.578125 C 70.085938 -79.929688 71.25 -81.285156 72.28125 -82.640625 C 73.3125 -84.003906 73.828125 -85.585938 73.828125 -87.390625 C 73.828125 -89.585938 72.597656 -91.492188 70.140625 -93.109375 C 67.691406 -94.722656 64.53125 -95.53125 60.65625 -95.53125 C 56.519531 -95.53125 52.835938 -95.015625 49.609375 -93.984375 C 46.378906 -92.953125 44.117188 -92.113281 42.828125 -91.46875 C 47.347656 -93.664062 52.484375 -95.3125 58.234375 -96.40625 C 63.984375 -97.5 69.441406 -97.460938 74.609375 -96.296875 C 79.773438 -95.140625 84.101562 -92.554688 87.59375 -88.546875 C 91.082031 -84.546875 92.828125 -78.539062 92.828125 -70.53125 Z M 92.828125 -10.65625 "/></g></g></g><g transform="matrix(1, 0, 0, 1, 173, 242)"><g clip-path="url(#3dd3df77be)"><g fill="#ffffff" fill-opacity="1"><g transform="translate(0.184353, 20.862481)"><g><path d="M 10.15625 -7.234375 L 17.984375 -7.234375 L 17.984375 -7.0625 C 17.546875 -7.0625 17.171875 -6.90625 16.859375 -6.59375 C 16.554688 -6.289062 16.40625 -5.921875 16.40625 -5.484375 L 16.40625 0 C 16.09375 -0.195312 15.75 -0.351562 15.375 -0.46875 C 15.007812 -0.59375 14.578125 -0.65625 14.078125 -0.65625 C 13.453125 -0.65625 12.894531 -0.601562 12.40625 -0.5 C 11.925781 -0.394531 11.445312 -0.285156 10.96875 -0.171875 C 10.5 -0.0546875 9.960938 0 9.359375 0 C 8.222656 0 7.148438 -0.234375 6.140625 -0.703125 C 5.140625 -1.179688 4.253906 -1.847656 3.484375 -2.703125 C 2.722656 -3.554688 2.128906 -4.539062 1.703125 -5.65625 C 1.273438 -6.769531 1.0625 -7.960938 1.0625 -9.234375 C 1.0625 -10.492188 1.273438 -11.679688 1.703125 -12.796875 C 2.128906 -13.921875 2.722656 -14.90625 3.484375 -15.75 C 4.253906 -16.601562 5.140625 -17.269531 6.140625 -17.75 C 7.148438 -18.226562 8.222656 -18.46875 9.359375 -18.46875 C 10.304688 -18.46875 11.203125 -18.300781 12.046875 -17.96875 C 12.890625 -17.644531 13.640625 -17.226562 14.296875 -16.71875 C 14.960938 -16.207031 15.476562 -15.65625 15.84375 -15.0625 C 16.019531 -14.78125 16.15625 -14.488281 16.25 -14.1875 C 16.351562 -13.882812 16.40625 -13.59375 16.40625 -13.3125 C 16.40625 -12.539062 16.128906 -11.878906 15.578125 -11.328125 C 15.023438 -10.773438 14.359375 -10.5 13.578125 -10.5 C 12.804688 -10.5 12.144531 -10.773438 11.59375 -11.328125 C 11.039062 -11.878906 10.765625 -12.539062 10.765625 -13.3125 C 10.765625 -13.757812 10.84375 -14.132812 11 -14.4375 C 11.15625 -14.75 11.332031 -15.019531 11.53125 -15.25 C 11.738281 -15.488281 11.921875 -15.726562 12.078125 -15.96875 C 12.234375 -16.207031 12.3125 -16.484375 12.3125 -16.796875 C 12.3125 -17.222656 12.125 -17.546875 11.75 -17.765625 C 11.382812 -17.984375 10.96875 -18.125 10.5 -18.1875 C 10.039062 -18.257812 9.660156 -18.296875 9.359375 -18.296875 C 8.742188 -18.296875 8.175781 -17.882812 7.65625 -17.0625 C 7.144531 -16.25 6.734375 -15.15625 6.421875 -13.78125 C 6.109375 -12.414062 5.953125 -10.898438 5.953125 -9.234375 C 5.953125 -7.554688 6.109375 -6.03125 6.421875 -4.65625 C 6.734375 -3.289062 7.144531 -2.195312 7.65625 -1.375 C 8.175781 -0.5625 8.742188 -0.15625 9.359375 -0.15625 C 9.660156 -0.15625 10.050781 -0.191406 10.53125 -0.265625 C 11.019531 -0.335938 11.429688 -0.488281 11.765625 -0.71875 L 11.765625 -5.484375 C 11.765625 -5.921875 11.609375 -6.289062 11.296875 -6.59375 C 10.992188 -6.90625 10.613281 -7.0625 10.15625 -7.0625 Z M 10.15625 -7.234375 "/></g></g></g><g fill="#ffffff" fill-opacity="1"><g transform="translate(19.170033, 20.862481)"><g><path d="M 9.078125 -13.484375 C 9.640625 -13.460938 10.117188 -13.257812 10.515625 -12.875 C 10.921875 -12.488281 11.125 -12.015625 11.125 -11.453125 C 11.125 -10.890625 10.921875 -10.40625 10.515625 -10 C 10.117188 -9.59375 9.640625 -9.390625 9.078125 -9.390625 C 8.523438 -9.390625 8.046875 -9.59375 7.640625 -10 C 7.242188 -10.40625 7.046875 -10.890625 7.046875 -11.453125 C 7.046875 -11.617188 7.054688 -11.742188 7.078125 -11.828125 C 7.109375 -11.921875 7.125 -12.019531 7.125 -12.125 C 7.125 -12.394531 6.984375 -12.53125 6.703125 -12.53125 C 6.453125 -12.53125 6.117188 -12.425781 5.703125 -12.21875 L 5.703125 -1.453125 C 5.703125 -1.128906 5.804688 -0.84375 6.015625 -0.59375 C 6.222656 -0.351562 6.476562 -0.207031 6.78125 -0.15625 L 6.78125 0 L 0.65625 0 L 0.65625 -0.15625 C 0.957031 -0.207031 1.210938 -0.351562 1.421875 -0.59375 C 1.628906 -0.84375 1.734375 -1.128906 1.734375 -1.453125 L 1.734375 -10.84375 C 1.734375 -11.175781 1.628906 -11.457031 1.421875 -11.6875 C 1.210938 -11.925781 0.957031 -12.070312 0.65625 -12.125 L 0.65625 -12.296875 L 5.171875 -12.953125 C 5.191406 -12.953125 5.203125 -12.953125 5.203125 -12.953125 C 5.210938 -12.953125 5.226562 -12.953125 5.25 -12.953125 C 5.382812 -12.953125 5.492188 -12.90625 5.578125 -12.8125 C 5.660156 -12.726562 5.703125 -12.625 5.703125 -12.5 L 5.703125 -12.375 C 6.171875 -12.613281 6.722656 -12.863281 7.359375 -13.125 C 7.992188 -13.394531 8.566406 -13.515625 9.078125 -13.484375 Z M 9.078125 -13.484375 "/></g></g></g><g fill="#ffffff" fill-opacity="1"><g transform="translate(31.431683, 20.862481)"><g><path d="M 11.765625 -1.984375 C 11.765625 -1.660156 11.867188 -1.375 12.078125 -1.125 C 12.285156 -0.882812 12.539062 -0.738281 12.84375 -0.6875 L 12.84375 -0.53125 L 8.3125 0.125 C 8.3125 0.125 8.304688 0.125 8.296875 0.125 C 8.285156 0.125 8.269531 0.125 8.25 0.125 C 8.132812 0.125 8.023438 0.078125 7.921875 -0.015625 C 7.828125 -0.109375 7.78125 -0.21875 7.78125 -0.34375 L 7.78125 -1 C 7.46875 -0.769531 7.039062 -0.523438 6.5 -0.265625 C 5.96875 -0.00390625 5.332031 0.125 4.59375 0.125 C 3.757812 0.125 3.007812 -0.09375 2.34375 -0.53125 C 1.675781 -0.96875 1.25 -1.554688 1.0625 -2.296875 C 0.84375 -3.046875 0.914062 -3.78125 1.28125 -4.5 C 1.65625 -5.226562 2.203125 -5.8125 2.921875 -6.25 C 3.378906 -6.53125 3.957031 -6.796875 4.65625 -7.046875 C 5.363281 -7.304688 6.101562 -7.5625 6.875 -7.8125 C 7.65625 -8.070312 8.382812 -8.335938 9.0625 -8.609375 C 9.738281 -8.878906 10.289062 -9.175781 10.71875 -9.5 C 11.15625 -9.832031 11.375 -10.203125 11.375 -10.609375 C 11.375 -10.953125 11.21875 -11.300781 10.90625 -11.65625 C 10.59375 -12.007812 10.226562 -12.289062 9.8125 -12.5 C 9.300781 -12.75 8.738281 -12.914062 8.125 -13 C 7.507812 -13.09375 6.875 -13.082031 6.21875 -12.96875 C 5.21875 -12.832031 4.71875 -12.5 4.71875 -11.96875 C 4.71875 -11.65625 4.8125 -11.382812 5 -11.15625 C 5.195312 -10.925781 5.390625 -10.679688 5.578125 -10.421875 C 5.765625 -10.171875 5.859375 -9.84375 5.859375 -9.4375 C 5.859375 -8.875 5.65625 -8.394531 5.25 -8 C 4.84375 -7.601562 4.359375 -7.40625 3.796875 -7.40625 C 3.234375 -7.40625 2.753906 -7.601562 2.359375 -8 C 1.960938 -8.394531 1.765625 -8.875 1.765625 -9.4375 C 1.765625 -10.125 2 -10.726562 2.46875 -11.25 C 2.945312 -11.769531 3.535156 -12.191406 4.234375 -12.515625 C 4.929688 -12.835938 5.585938 -13.046875 6.203125 -13.140625 C 7.609375 -13.347656 8.835938 -13.179688 9.890625 -12.640625 C 10.398438 -12.390625 10.835938 -12.039062 11.203125 -11.59375 C 11.578125 -11.144531 11.765625 -10.59375 11.765625 -9.9375 Z M 7.78125 -1.1875 L 7.78125 -7.96875 C 7.425781 -7.8125 7.03125 -7.59375 6.59375 -7.3125 C 6.164062 -7.039062 5.796875 -6.671875 5.484375 -6.203125 C 5.171875 -5.742188 4.988281 -5.144531 4.9375 -4.40625 C 4.894531 -3.769531 4.941406 -3.207031 5.078125 -2.71875 C 5.222656 -2.238281 5.4375 -1.851562 5.71875 -1.5625 C 6.019531 -1.238281 6.367188 -1.039062 6.765625 -0.96875 C 7.160156 -0.90625 7.5 -0.976562 7.78125 -1.1875 Z M 7.78125 -1.1875 "/></g></g></g><g clip-path="url(#4e83095bf3)"><g fill="#ffffff" fill-opacity="1"><g transform="translate(45.407302, 20.862481)"><g><path d="M 7.59375 -12.953125 C 8.3125 -13.023438 9.023438 -12.929688 9.734375 -12.671875 C 10.453125 -12.421875 11.101562 -12.019531 11.6875 -11.46875 C 12.28125 -10.925781 12.753906 -10.257812 13.109375 -9.46875 C 13.460938 -8.675781 13.640625 -7.789062 13.640625 -6.8125 C 13.640625 -5.625 13.441406 -4.601562 13.046875 -3.75 C 12.648438 -2.90625 12.140625 -2.191406 11.515625 -1.609375 C 10.890625 -1.023438 10.210938 -0.546875 9.484375 -0.171875 C 8.765625 0.191406 8.066406 0.488281 7.390625 0.71875 C 6.710938 0.945312 6.148438 1.140625 5.703125 1.296875 L 5.703125 5.859375 C 5.703125 5.992188 5.644531 6.117188 5.53125 6.234375 C 5.425781 6.347656 5.296875 6.40625 5.140625 6.40625 L 0.65625 6.40625 L 0.65625 6.25 C 0.957031 6.175781 1.210938 6.019531 1.421875 5.78125 C 1.628906 5.550781 1.734375 5.269531 1.734375 4.9375 L 1.734375 -10.84375 C 1.734375 -11.175781 1.628906 -11.457031 1.421875 -11.6875 C 1.210938 -11.925781 0.957031 -12.070312 0.65625 -12.125 L 0.65625 -12.296875 L 5.171875 -12.953125 C 5.191406 -12.953125 5.203125 -12.953125 5.203125 -12.953125 C 5.210938 -12.953125 5.226562 -12.953125 5.25 -12.953125 C 5.382812 -12.953125 5.492188 -12.90625 5.578125 -12.8125 C 5.660156 -12.726562 5.703125 -12.625 5.703125 -12.5 L 5.703125 -12.375 C 5.984375 -12.507812 6.28125 -12.628906 6.59375 -12.734375 C 6.90625 -12.835938 7.238281 -12.910156 7.59375 -12.953125 Z M 5.703125 1.0625 C 6.171875 0.8125 6.640625 0.492188 7.109375 0.109375 C 7.585938 -0.265625 8.023438 -0.738281 8.421875 -1.3125 C 8.816406 -1.894531 9.132812 -2.613281 9.375 -3.46875 C 9.613281 -4.320312 9.734375 -5.351562 9.734375 -6.5625 C 9.734375 -7.65625 9.59375 -8.640625 9.3125 -9.515625 C 9.03125 -10.398438 8.648438 -11.101562 8.171875 -11.625 C 7.703125 -12.15625 7.175781 -12.421875 6.59375 -12.421875 C 6.3125 -12.421875 6.015625 -12.351562 5.703125 -12.21875 Z M 5.703125 1.0625 "/></g></g></g></g><g fill="#ffffff" fill-opacity="1"><g transform="translate(60.437676, 20.862481)"><g><path d="M 12.640625 -1.453125 C 12.640625 -1.128906 12.742188 -0.84375 12.953125 -0.59375 C 13.160156 -0.351562 13.414062 -0.207031 13.71875 -0.15625 L 13.71875 0 L 7.59375 0 L 7.59375 -0.15625 C 7.894531 -0.207031 8.148438 -0.351562 8.359375 -0.59375 C 8.566406 -0.84375 8.671875 -1.128906 8.671875 -1.453125 L 8.671875 -9.234375 C 8.671875 -9.691406 8.785156 -10.050781 9.015625 -10.3125 C 9.242188 -10.570312 9.472656 -10.820312 9.703125 -11.0625 C 9.929688 -11.300781 10.046875 -11.578125 10.046875 -11.890625 C 10.046875 -12.191406 9.878906 -12.421875 9.546875 -12.578125 C 9.210938 -12.734375 8.78125 -12.8125 8.25 -12.8125 C 7.601562 -12.8125 7.035156 -12.71875 6.546875 -12.53125 C 6.066406 -12.351562 5.785156 -12.25 5.703125 -12.21875 L 5.703125 -1.453125 C 5.703125 -1.128906 5.804688 -0.84375 6.015625 -0.59375 C 6.222656 -0.351562 6.476562 -0.207031 6.78125 -0.15625 L 6.78125 0 L 0.65625 0 L 0.65625 -0.15625 C 0.957031 -0.207031 1.210938 -0.351562 1.421875 -0.59375 C 1.628906 -0.84375 1.734375 -1.128906 1.734375 -1.453125 L 1.734375 -16.359375 C 1.734375 -16.671875 1.628906 -16.945312 1.421875 -17.1875 C 1.210938 -17.4375 0.957031 -17.585938 0.65625 -17.640625 L 0.65625 -17.796875 L 5.171875 -18.46875 C 5.191406 -18.46875 5.203125 -18.46875 5.203125 -18.46875 C 5.210938 -18.46875 5.226562 -18.46875 5.25 -18.46875 C 5.550781 -18.46875 5.703125 -18.304688 5.703125 -17.984375 L 5.703125 -12.390625 C 6.191406 -12.640625 6.738281 -12.835938 7.34375 -12.984375 C 7.945312 -13.140625 8.554688 -13.21875 9.171875 -13.21875 C 9.796875 -13.21875 10.367188 -13.097656 10.890625 -12.859375 C 11.421875 -12.617188 11.84375 -12.238281 12.15625 -11.71875 C 12.476562 -11.207031 12.640625 -10.5 12.640625 -9.59375 Z M 12.640625 -1.453125 "/></g></g></g><g fill="#ffffff" fill-opacity="1"><g transform="translate(75.283464, 20.862481)"><g><path d="M 1.734375 -1.453125 L 1.734375 -10.84375 C 1.734375 -11.175781 1.628906 -11.457031 1.421875 -11.6875 C 1.210938 -11.925781 0.957031 -12.070312 0.65625 -12.125 L 0.65625 -12.296875 L 5.171875 -12.953125 C 5.191406 -12.953125 5.203125 -12.953125 5.203125 -12.953125 C 5.210938 -12.953125 5.226562 -12.953125 5.25 -12.953125 C 5.550781 -12.953125 5.703125 -12.800781 5.703125 -12.5 L 5.703125 -1.453125 C 5.703125 -1.128906 5.804688 -0.84375 6.015625 -0.59375 C 6.222656 -0.351562 6.476562 -0.207031 6.78125 -0.15625 L 6.78125 0 L 0.65625 0 L 0.65625 -0.15625 C 0.957031 -0.207031 1.210938 -0.351562 1.421875 -0.59375 C 1.628906 -0.84375 1.734375 -1.128906 1.734375 -1.453125 Z M 5.78125 -16.40625 C 5.78125 -15.863281 5.578125 -15.390625 5.171875 -14.984375 C 4.765625 -14.578125 4.28125 -14.375 3.71875 -14.375 C 3.15625 -14.375 2.675781 -14.578125 2.28125 -14.984375 C 1.882812 -15.390625 1.6875 -15.863281 1.6875 -16.40625 C 1.6875 -16.96875 1.882812 -17.453125 2.28125 -17.859375 C 2.675781 -18.265625 3.15625 -18.46875 3.71875 -18.46875 C 4.28125 -18.46875 4.765625 -18.265625 5.171875 -17.859375 C 5.578125 -17.453125 5.78125 -16.96875 5.78125 -16.40625 Z M 5.78125 -16.40625 "/></g></g></g><g fill="#ffffff" fill-opacity="1"><g transform="translate(83.194268, 20.862481)"><g><path d="M 6.9375 -13.0625 C 6.707031 -13.0625 6.429688 -12.832031 6.109375 -12.375 C 5.785156 -11.914062 5.5 -11.300781 5.25 -10.53125 C 5 -9.769531 4.875 -8.921875 4.875 -7.984375 C 4.875 -6.828125 5.066406 -5.769531 5.453125 -4.8125 C 5.847656 -3.851562 6.367188 -3.09375 7.015625 -2.53125 C 7.660156 -1.96875 8.378906 -1.6875 9.171875 -1.6875 C 9.679688 -1.6875 10.171875 -1.804688 10.640625 -2.046875 C 11.109375 -2.296875 11.523438 -2.640625 11.890625 -3.078125 L 12.03125 -3 C 11.5 -2.050781 10.785156 -1.289062 9.890625 -0.71875 C 8.992188 -0.15625 8.007812 0.125 6.9375 0.125 C 5.832031 0.125 4.828125 -0.171875 3.921875 -0.765625 C 3.015625 -1.359375 2.285156 -2.160156 1.734375 -3.171875 C 1.191406 -4.179688 0.921875 -5.304688 0.921875 -6.546875 C 0.921875 -7.773438 1.191406 -8.894531 1.734375 -9.90625 C 2.285156 -10.914062 3.015625 -11.71875 3.921875 -12.3125 C 4.828125 -12.914062 5.832031 -13.21875 6.9375 -13.21875 C 7.832031 -13.21875 8.664062 -13.019531 9.4375 -12.625 C 10.21875 -12.238281 10.84375 -11.757812 11.3125 -11.1875 C 11.789062 -10.625 12.03125 -10.0625 12.03125 -9.5 C 12.03125 -8.9375 11.828125 -8.457031 11.421875 -8.0625 C 11.015625 -7.664062 10.53125 -7.46875 9.96875 -7.46875 C 9.425781 -7.46875 8.953125 -7.664062 8.546875 -8.0625 C 8.140625 -8.457031 7.9375 -8.9375 7.9375 -9.5 C 7.9375 -9.957031 8.03125 -10.3125 8.21875 -10.5625 C 8.414062 -10.820312 8.609375 -11.054688 8.796875 -11.265625 C 8.984375 -11.472656 9.078125 -11.726562 9.078125 -12.03125 C 9.078125 -12.34375 8.941406 -12.566406 8.671875 -12.703125 C 8.410156 -12.847656 8.109375 -12.941406 7.765625 -12.984375 C 7.421875 -13.035156 7.144531 -13.0625 6.9375 -13.0625 Z M 6.9375 -13.0625 "/></g></g></g></g></g></svg>